<mxfile host="app.diagrams.net" agent="Mozilla/5.0 (X11; Linux x86_64; rv:141.0) Gecko/20100101 Firefox/141.0" version="28.0.7">
  <diagram name="Page-1" id="m8m2iFlxCTWb-2zP2oj0">
    <mxGraphModel dx="1442" dy="578" grid="1" gridSize="10" guides="1" tooltips="1" connect="1" arrows="1" fold="1" page="0" pageScale="1" pageWidth="850" pageHeight="1100" background="none" math="0" shadow="0">
      <root>
        <mxCell id="0" />
        <mxCell id="1" parent="0" />
        <mxCell id="DGdEGoay9hSmRTU-1w3r-1" value="&lt;div&gt;Aluno&lt;/div&gt;" style="shape=umlActor;verticalLabelPosition=bottom;verticalAlign=top;html=1;outlineConnect=0;" parent="1" vertex="1">
          <mxGeometry y="240" width="30" height="60" as="geometry" />
        </mxCell>
        <mxCell id="DGdEGoay9hSmRTU-1w3r-9" value="&lt;div&gt;Cadastrar&amp;nbsp;&lt;/div&gt;&lt;div&gt;Aluno&lt;/div&gt;" style="ellipse;whiteSpace=wrap;html=1;" parent="1" vertex="1">
          <mxGeometry x="315" y="250" width="90" height="60" as="geometry" />
        </mxCell>
        <mxCell id="DGdEGoay9hSmRTU-1w3r-10" value="&lt;div&gt;Cadastrar Plano de Mensalidade&lt;/div&gt;" style="ellipse;whiteSpace=wrap;html=1;" parent="1" vertex="1">
          <mxGeometry x="310" y="340" width="100" height="60" as="geometry" />
        </mxCell>
        <mxCell id="DGdEGoay9hSmRTU-1w3r-11" value="Administrador" style="shape=umlActor;verticalLabelPosition=bottom;verticalAlign=top;html=1;outlineConnect=0;" parent="1" vertex="1">
          <mxGeometry x="520" y="360" width="30" height="60" as="geometry" />
        </mxCell>
        <mxCell id="DGdEGoay9hSmRTU-1w3r-16" value="Visualizar Treinos" style="ellipse;whiteSpace=wrap;html=1;" parent="1" vertex="1">
          <mxGeometry x="120" y="190" width="90" height="60" as="geometry" />
        </mxCell>
        <mxCell id="DGdEGoay9hSmRTU-1w3r-18" value="&lt;div&gt;Instrutores&lt;/div&gt;" style="shape=umlActor;verticalLabelPosition=bottom;verticalAlign=top;html=1;outlineConnect=0;" parent="1" vertex="1">
          <mxGeometry y="460" width="30" height="60" as="geometry" />
        </mxCell>
        <mxCell id="DGdEGoay9hSmRTU-1w3r-24" value="&lt;div&gt;Manter&lt;/div&gt;&lt;div&gt;Treino&lt;/div&gt;" style="ellipse;whiteSpace=wrap;html=1;" parent="1" vertex="1">
          <mxGeometry x="120" y="420" width="90" height="60" as="geometry" />
        </mxCell>
        <mxCell id="DGdEGoay9hSmRTU-1w3r-26" value="&lt;div&gt;Cadastrar&lt;/div&gt;&lt;div&gt;Instrutor&lt;/div&gt;" style="ellipse;whiteSpace=wrap;html=1;" parent="1" vertex="1">
          <mxGeometry x="315" y="430" width="90" height="60" as="geometry" />
        </mxCell>
        <mxCell id="DGdEGoay9hSmRTU-1w3r-40" value="&lt;div&gt;Gerar&lt;/div&gt;&lt;div&gt;Matricula&lt;/div&gt;" style="ellipse;whiteSpace=wrap;html=1;" parent="1" vertex="1">
          <mxGeometry x="120" y="310" width="90" height="50" as="geometry" />
        </mxCell>
        <mxCell id="-XS9lfi-3Ie3cjo0cX_j-7" value="" style="endArrow=none;html=1;rounded=0;exitX=1;exitY=0.5;exitDx=0;exitDy=0;" parent="1" source="DGdEGoay9hSmRTU-1w3r-9" edge="1">
          <mxGeometry width="50" height="50" relative="1" as="geometry">
            <mxPoint x="180" y="460" as="sourcePoint" />
            <mxPoint x="510" y="400" as="targetPoint" />
          </mxGeometry>
        </mxCell>
        <mxCell id="-XS9lfi-3Ie3cjo0cX_j-8" value="" style="endArrow=none;html=1;rounded=0;entryX=0;entryY=0.5;entryDx=0;entryDy=0;" parent="1" target="DGdEGoay9hSmRTU-1w3r-16" edge="1">
          <mxGeometry width="50" height="50" relative="1" as="geometry">
            <mxPoint x="40" y="270" as="sourcePoint" />
            <mxPoint x="230" y="410" as="targetPoint" />
          </mxGeometry>
        </mxCell>
        <mxCell id="-XS9lfi-3Ie3cjo0cX_j-9" value="" style="endArrow=none;html=1;rounded=0;exitX=1;exitY=0.5;exitDx=0;exitDy=0;" parent="1" source="DGdEGoay9hSmRTU-1w3r-10" edge="1">
          <mxGeometry width="50" height="50" relative="1" as="geometry">
            <mxPoint x="180" y="460" as="sourcePoint" />
            <mxPoint x="510" y="410" as="targetPoint" />
          </mxGeometry>
        </mxCell>
        <mxCell id="-XS9lfi-3Ie3cjo0cX_j-11" value="" style="endArrow=none;html=1;rounded=0;entryX=0;entryY=0.5;entryDx=0;entryDy=0;exitX=1;exitY=0.5;exitDx=0;exitDy=0;dashed=1;startArrow=block;startFill=0;" parent="1" source="DGdEGoay9hSmRTU-1w3r-40" target="DGdEGoay9hSmRTU-1w3r-10" edge="1">
          <mxGeometry width="50" height="50" relative="1" as="geometry">
            <mxPoint x="180" y="460" as="sourcePoint" />
            <mxPoint x="230" y="410" as="targetPoint" />
          </mxGeometry>
        </mxCell>
        <mxCell id="-XS9lfi-3Ie3cjo0cX_j-12" value="" style="endArrow=none;html=1;rounded=0;entryX=0;entryY=0.5;entryDx=0;entryDy=0;startArrow=classic;startFill=1;" parent="1" target="DGdEGoay9hSmRTU-1w3r-40" edge="1">
          <mxGeometry width="50" height="50" relative="1" as="geometry">
            <mxPoint x="40" y="290" as="sourcePoint" />
            <mxPoint x="230" y="410" as="targetPoint" />
          </mxGeometry>
        </mxCell>
        <mxCell id="-XS9lfi-3Ie3cjo0cX_j-13" value="&amp;lt;&amp;lt;include&amp;gt;&amp;gt;" style="text;html=1;align=center;verticalAlign=middle;resizable=0;points=[];autosize=1;strokeColor=none;fillColor=none;" parent="1" vertex="1">
          <mxGeometry x="225" y="326" width="90" height="30" as="geometry" />
        </mxCell>
        <mxCell id="-XS9lfi-3Ie3cjo0cX_j-15" value="" style="endArrow=none;html=1;rounded=0;exitX=1;exitY=0.5;exitDx=0;exitDy=0;" parent="1" source="DGdEGoay9hSmRTU-1w3r-26" edge="1">
          <mxGeometry width="50" height="50" relative="1" as="geometry">
            <mxPoint x="180" y="460" as="sourcePoint" />
            <mxPoint x="510" y="420" as="targetPoint" />
          </mxGeometry>
        </mxCell>
        <mxCell id="-XS9lfi-3Ie3cjo0cX_j-16" value="" style="endArrow=none;html=1;rounded=0;entryX=0;entryY=0.5;entryDx=0;entryDy=0;" parent="1" target="DGdEGoay9hSmRTU-1w3r-24" edge="1">
          <mxGeometry width="50" height="50" relative="1" as="geometry">
            <mxPoint x="40" y="490" as="sourcePoint" />
            <mxPoint x="230" y="410" as="targetPoint" />
          </mxGeometry>
        </mxCell>
      </root>
    </mxGraphModel>
  </diagram>
</mxfile>
